<svg width="50" height="50" viewBox="0 0 50 50" fill="none" xmlns="http://www.w3.org/2000/svg">
<path d="M27.2128 0.91497C26.6258 0.329115 25.8299 0 25 0C24.1701 0 23.3742 0.329115 22.7872 0.91497L0.878574 22.7903C0.308454 23.3797 -0.0070127 24.169 0.000118315 24.9884C0.00724933 25.8078 0.336408 26.5916 0.9167 27.171C1.49699 27.7504 2.28199 28.0791 3.10261 28.0862C3.92324 28.0933 4.71383 27.7783 5.30412 27.2091L6.22115 26.2934V46.875C6.22115 47.7038 6.5509 48.4986 7.13786 49.0847C7.72481 49.6708 8.52089 50 9.35096 50H15.6106C16.4407 50 17.2367 49.6708 17.8237 49.0847C18.4106 48.4986 18.7404 47.7038 18.7404 46.875V40.6249C18.7404 39.7961 19.0701 39.0012 19.6571 38.4151C20.244 37.8291 21.0401 37.4998 21.8702 37.4998H28.1298C28.9599 37.4998 29.756 37.8291 30.3429 38.4151C30.9299 39.0012 31.2596 39.7961 31.2596 40.6249V46.875C31.2596 47.7038 31.5894 48.4986 32.1763 49.0847C32.7633 49.6708 33.5593 50 34.3894 50H40.649C41.4791 50 42.2752 49.6708 42.8621 49.0847C43.4491 48.4986 43.7788 47.7038 43.7788 46.875V26.2934L44.6959 27.2091C45.2862 27.7783 46.0768 28.0933 46.8974 28.0862C47.718 28.0791 48.503 27.7504 49.0833 27.171C49.6636 26.5916 49.9927 25.8078 49.9999 24.9884C50.007 24.169 49.6915 23.3797 49.1214 22.7903L27.2128 0.91497V0.91497Z" fill="#FF6E04"/>
</svg>
