<svg width="50" height="38" viewBox="0 0 50 38" fill="none" xmlns="http://www.w3.org/2000/svg">
<path d="M21.875 37.5C21.875 37.5 18.75 37.5 18.75 34.375C18.75 31.25 21.875 21.875 34.375 21.875C46.875 21.875 50 31.25 50 34.375C50 37.5 46.875 37.5 46.875 37.5H21.875ZM34.375 18.75C36.8614 18.75 39.246 17.7623 41.0041 16.0041C42.7623 14.246 43.75 11.8614 43.75 9.375C43.75 6.8886 42.7623 4.50403 41.0041 2.74587C39.246 0.987721 36.8614 0 34.375 0C31.8886 0 29.504 0.987721 27.7459 2.74587C25.9877 4.50403 25 6.8886 25 9.375C25 11.8614 25.9877 14.246 27.7459 16.0041C29.504 17.7623 31.8886 18.75 34.375 18.75V18.75Z" fill="#6F828C"/>
<path fill-rule="evenodd" clip-rule="evenodd" d="M16.3 37.4999C15.8367 36.5243 15.6057 35.4547 15.625 34.3749C15.625 30.1405 17.75 25.7811 21.675 22.7499C19.7159 22.1462 17.6748 21.851 15.625 21.8749C3.125 21.8749 0 31.2499 0 34.3749C0 37.4999 3.125 37.4999 3.125 37.4999H16.3Z" fill="#6F828C"/>
<path d="M14.0625 18.75C16.1345 18.75 18.1216 17.9269 19.5868 16.4618C21.0519 14.9966 21.875 13.0095 21.875 10.9375C21.875 8.8655 21.0519 6.87836 19.5868 5.41323C18.1216 3.9481 16.1345 3.125 14.0625 3.125C11.9905 3.125 10.0034 3.9481 8.53823 5.41323C7.0731 6.87836 6.25 8.8655 6.25 10.9375C6.25 13.0095 7.0731 14.9966 8.53823 16.4618C10.0034 17.9269 11.9905 18.75 14.0625 18.75V18.75Z" fill="#6F828C"/>
</svg>
