<svg xmlns="http://www.w3.org/2000/svg" xmlns:xlink="http://www.w3.org/1999/xlink" width="181.065" height="34.541" viewBox="0 0 181.065 34.541">
  <defs>
    <clipPath id="clip-path">
      <path id="패스_48" data-name="패스 48" d="M238.965,31.963l21.172-12.3,21.318,12.308-21.172,12.3Z" transform="translate(-238.965 -19.66)" fill="none"/>
    </clipPath>
    <clipPath id="clip-path-2">
      <path id="패스_50" data-name="패스 50" d="M263.633,56.5l-.023-8.028,13.74-7.933.023,8.028Z" transform="translate(-263.61 -40.54)" fill="none"/>
    </clipPath>
    <clipPath id="clip-path-3">
      <path id="패스_52" data-name="패스 52" d="M246.651,48.266l.023-8.028,13.74,7.933-.023,8.028Z" transform="translate(-246.651 -40.238)" fill="none"/>
    </clipPath>
  </defs>
  <g id="그룹_443" data-name="그룹 443" transform="translate(-238.965 -19.66)">
    <g id="그룹_433" data-name="그룹 433" transform="translate(238.965 19.66)">
      <g id="그룹_432" data-name="그룹 432" style="isolation: isolate">
        <g id="그룹_431" data-name="그룹 431" clip-path="url(#clip-path)">
          <g id="그룹_430" data-name="그룹 430">
            <path id="패스_47" data-name="패스 47" d="M281.454,31.968,260.136,19.66l-21.172,12.3,21.318,12.308,21.172-12.3" transform="translate(-238.965 -19.66)"/>
          </g>
        </g>
      </g>
    </g>
    <g id="그룹_437" data-name="그룹 437" transform="translate(260.896 38.24)">
      <g id="그룹_436" data-name="그룹 436" transform="translate(0 0)" style="isolation: isolate">
        <g id="그룹_435" data-name="그룹 435" clip-path="url(#clip-path-2)">
          <g id="그룹_434" data-name="그룹 434">
            <path id="패스_49" data-name="패스 49" d="M277.35,40.54l-13.74,7.933.023,8.028,13.74-7.933-.023-8.028" transform="translate(-263.61 -40.54)"/>
          </g>
        </g>
      </g>
    </g>
    <g id="그룹_441" data-name="그룹 441" transform="translate(245.804 37.972)">
      <g id="그룹_440" data-name="그룹 440" style="isolation: isolate">
        <g id="그룹_439" data-name="그룹 439" clip-path="url(#clip-path-3)">
          <g id="그룹_438" data-name="그룹 438">
            <path id="패스_51" data-name="패스 51" d="M260.414,48.171l-13.74-7.933-.023,8.028,13.74,7.933.023-8.028" transform="translate(-246.651 -40.238)"/>
          </g>
        </g>
      </g>
    </g>
    <line id="선_115" data-name="선 115" x1="11.264" y1="7.121" transform="translate(260.211 31.911)" fill="none" stroke="#267dff" stroke-linecap="square" stroke-miterlimit="10" stroke-width="1"/>
    <path id="패스_59" data-name="패스 59" d="M.052.118,0,6.858" transform="translate(271.593 39.242)" fill="none" stroke="#267dff" stroke-linecap="square" stroke-width="1"/>
    <rect id="사각형_266" data-name="사각형 266" width="1.905" height="3.273" transform="translate(270.641 46.362)" fill="#e81a95"/>
    <g id="그룹_442" data-name="그룹 442" transform="translate(300.662 24.342)">
      <path id="패스_53" data-name="패스 53" d="M309.188,51.315a.89.89,0,0,1-.89-.89V25.811a.89.89,0,0,1,.89-.89h12.08a8.533,8.533,0,0,1,3.369.672,8.359,8.359,0,0,1,2.706,1.83,8.765,8.765,0,0,1,1.8,2.715,8.434,8.434,0,0,1,.672,3.327v1.241a8.292,8.292,0,0,1-.674,3.311,9.107,9.107,0,0,1-1.788,2.7,7.939,7.939,0,0,1-2.723,1.841,8.778,8.778,0,0,1-3.359.646h-6.225v7.217a.89.89,0,0,1-.89.89ZM320.441,36.5a2.656,2.656,0,0,0,1.962-.593,2.538,2.538,0,0,0,.581-1.827,2.629,2.629,0,0,0-.6-1.829,2.511,2.511,0,0,0-1.94-.633h-5.4V36.5Z" transform="translate(-308.298 -24.921)"/>
      <path id="패스_54" data-name="패스 54" d="M351.823,52.444a.852.852,0,0,1-.923-.756V35.93a.852.852,0,0,1,.923-.755h5.451a.852.852,0,0,1,.924.755V51.688a.852.852,0,0,1-.924.756Z" transform="translate(-312.99 -26.05)"/>
      <path id="패스_55" data-name="패스 55" d="M386.567,51.315a8.789,8.789,0,0,1-3.5-.714,9.142,9.142,0,0,1-4.83-4.83,8.893,8.893,0,0,1-.713-3.537V34.044a9.121,9.121,0,0,1,2.661-6.462,9.194,9.194,0,0,1,2.883-1.946,8.783,8.783,0,0,1,3.5-.715h3.558a8.46,8.46,0,0,1,3.325.65,8.35,8.35,0,0,1,2.661,1.782,8.934,8.934,0,0,1,1.814,2.639,10.384,10.384,0,0,1,.861,3.212.89.89,0,0,1-.885.984h-5.213a.889.889,0,0,1-.874-.722,3.359,3.359,0,0,0-.615-1.442c-.077-.1-.312-.4-1.118-.4h-3.475a1.924,1.924,0,0,0-1.608.709,2.961,2.961,0,0,0-.647,1.959v7.652a3.041,3.041,0,0,0,.652,1.986,1.9,1.9,0,0,0,1.6.723h3.475c.762,0,.981-.284,1.054-.377a4.252,4.252,0,0,0,.7-1.454.889.889,0,0,1,.857-.65H397.9a.89.89,0,0,1,.885.986,10.13,10.13,0,0,1-.863,3.151,8.749,8.749,0,0,1-1.818,2.6,8.541,8.541,0,0,1-5.981,2.406Z" transform="translate(-315.922 -24.921)"/>
      <path id="패스_56" data-name="패스 56" d="M354.548,32.219A3.649,3.649,0,1,1,358.2,28.57,3.652,3.652,0,0,1,354.548,32.219Z" transform="translate(-312.99 -24.921)" fill="#267dff"/>
      <path id="패스_57" data-name="패스 57" d="M439.788,49.89s-1.03-1.363-1.307-1.736q-1.324-1.779-2.687-3.6l-4.9-6.62,6.177-8.107-4.365-4.366-5.593,7.374V25.811a.89.89,0,0,0-.89-.89h-5.337a.89.89,0,0,0-.89.89V50.425a.89.89,0,0,0,.89.89h5.337a.89.89,0,0,0,.89-.89V43.392l5.741,7.57a.891.891,0,0,0,.708.352h5.513a.89.89,0,0,0,.711-1.425Z" transform="translate(-320.6 -24.921)"/>
      <path id="패스_58" data-name="패스 58" d="M441.346,25.416a.892.892,0,0,0-.8-.495h-5.455a.887.887,0,0,0-.678.317l0,0-.5.654.831.831h0l2.127,2.127,0,0,1.409,1.412.012-.016v0l.626-.824h0l2.343-3.074A.89.89,0,0,0,441.346,25.416Z" transform="translate(-322.132 -24.921)" fill="#e81a95"/>
    </g>
  </g>
</svg>
